# xmcd
#
# Track frame offsets: 
#        150
#        21836
#        39781
#        60911
#        76147
#        97518
#        120318
#        140641
#        159741
#        179691
#
# Disc length: 2647 seconds
#
# Revision: 1
# Processed by: cddbd v1.5.2PL0 Copyright (c) Steve Scherf et al.
# Submitted via: ExactAudioCopy v0.99pb3
#
DISCID=6d0a550a
DTITLE=Conjunto Clasico: Canta Tito Nieves - 25 Aniversario: Recuerdos
DYEAR=2003
DGENRE=Salsa
TTITLE0=Vecinita
TTITLE1=Los Rodriauez De Nuevo
TTITLE2=Nada Le Molesta
TTITLE3=Nos Vamos
TTITLE4=La Consentida
TTITLE5=El Aniversario
TTITLE6=Lloras
TTITLE7=El Vendedor De Flores
TTITLE8=Me Voy De Rumba
TTITLE9=Me Caso Contigo
EXTD=YEAR: 2003
EXTT0=
EXTT1=
EXTT2=
EXTT3=
EXTT4=
EXTT5=
EXTT6=
EXTT7=
EXTT8=
EXTT9=
PLAYORDER=
